:SAMPLES-PER-SECOND 30
:FULLY-SPECIFIED
:DEGREES
243
root  65.4325 36.6812 3.45517 41.1246 8.64216 -1.11545
RightUpLeg  -74.9474 -27.2393 18.401
RightLeg  26.5798 1.98867 0.855489
RightFoot  5.80365 -0.265415 2.02398
RightToes  0.00048216 0.542163 -0.142577
Spine  69.1167 -3.75408 5.97391
Spine1  10.1793 3.44177 -7.38798
HEad  -37.804 -6.44069 6.63541
LeftShoulder1  1.56263 -24.2138 3.20533
LeftArm  -80.1729 -54.2733 27.9603
LeftForeArm  -8.56564 -6.54841 5.03798
LeftHand  -0.25398 0.0180481 5.50724
RightShoulder  1.27589 13.1414 -0.845654
RightArm  -72.1509 58.5666 -11.0926
RightForeArm  -18.6725 18.7404 4.46987
RightHand  -2.54077 11.1887 -18.1267
LeftUpLeg  -77.9965 26.4202 -34.7602
LeftLeg  36.3938 -0.761521 -0.224449
LeftFoot  -8.63083 -0.160638 8.97064
LeftToes  1.06244e-005 4.65856e-005 -8.18505e-006
244
root  65.4231 36.7019 3.54634 41.1478 8.51434 -1.20457
RightUpLeg  -75.0521 -27.4249 18.9617
RightLeg  26.5731 2.42435 1.09235
RightFoot  5.73074 -0.222714 1.74459
RightToes  0.00048216 0.542163 -0.142577
Spine  69.1856 -3.73341 5.97538
Spine1  10.1981 3.39676 -7.1928
HEad  -37.9596 -6.07098 6.54781
LeftShoulder1  1.79736 -24.0527 2.20297
LeftArm  -80.2642 -54.3833 27.6433
LeftForeArm  -8.4381 -7.29753 4.92165
LeftHand  -0.25398 0.0180481 5.50724
RightShoulder  1.16745 12.4723 -1.24801
RightArm  -72.3483 59.3341 -10.8041
RightForeArm  -18.4785 18.9499 4.53673
RightHand  -2.47529 10.998 -17.8669
LeftUpLeg  -77.7841 26.3437 -34.2348
LeftLeg  36.4336 -0.399625 0.0615778
LeftFoot  -8.71009 -0.149268 8.75671
LeftToes  1.06244e-005 4.65856e-005 -8.18505e-006
245
root  65.4315 36.7029 3.63236 41.4979 8.21859 -0.992642
RightUpLeg  -75.5822 -27.5603 19.2277
RightLeg  26.7024 2.83219 1.32224
RightFoot  5.66949 -0.205308 1.63972
RightToes  0.00048216 0.542163 -0.142577
Spine  68.9577 -3.74815 5.83553
Spine1  10.3669 3.2686 -7.10339
HEad  -38.0635 -5.55438 6.43811
LeftShoulder1  1.97295 -24.0179 1.4709
LeftArm  -80.2649 -54.3125 27.1502
LeftForeArm  -8.50026 -7.95384 4.88729
LeftHand  -0.25398 0.0180481 5.50724
RightShoulder  1.15799 12.2915 -1.22265
RightArm  -72.7489 59.555 -11.4344
RightForeArm  -17.6821 19.2235 4.60628
RightHand  -2.2193 10.2437 -16.836
LeftUpLeg  -77.7242 26.0066 -34.164
LeftLeg  36.3859 -0.00479611 0.375006
LeftFoot  -8.78914 -0.14053 8.58966
LeftToes  1.06244e-005 4.65856e-005 -8.18505e-006
246
root  65.4493 36.7015 3.71932 41.9403 7.923 -0.655334
RightUpLeg  -76.1232 -27.6369 19.1891
RightLeg  26.8389 3.06129 1.45664
RightFoot  5.59673 -0.20455 1.70557
RightToes  0.00048216 0.542163 -0.142577
Spine  68.7083 -3.80581 5.77246
Spine1  10.4966 3.16786 -7.05456
HEad  -37.9816 -5.29034 6.33321
LeftShoulder1  2.1273 -24.0165 0.835651
LeftArm  -80.2289 -54.385 26.4232
LeftForeArm  -8.20944 -8.70448 4.82217
LeftHand  -0.25398 0.0180481 5.50724
RightShoulder  1.25706 12.5752 -0.66774
RightArm  -72.6662 59.0906 -12.8261
RightForeArm  -17.5367 19.799 4.83238
RightHand  -2.09875 9.67332 -16.5329
LeftUpLeg  -77.7206 25.659 -34.4043
LeftLeg  36.2589 0.25986 0.583877
LeftFoot  -8.80568 -0.136484 8.51739
LeftToes  1.06244e-005 4.65856e-005 -8.18505e-006
247
root  65.4682 36.7143 3.8133 42.1593 7.77094 -0.563409
RightUpLeg  -76.1667 -27.5869 19.0449
RightLeg  26.8103 3.08544 1.46802
RightFoot  5.50523 -0.206766 1.78319
RightToes  0.00048216 0.542163 -0.142577
Spine  68.758 -3.9221 5.89548
Spine1  10.4851 3.1546 -7.10111
HEad  -37.7892 -5.2938 6.23559
LeftShoulder1  2.2828 -23.9955 0.189941
LeftArm  -80.0794 -54.4698 25.6076
LeftForeArm  -7.54067 -9.43214 4.6939
LeftHand  -0.25398 0.0180481 5.50724
RightShoulder  1.32375 12.6025 -0.210475
RightArm  -72.2286 58.779 -13.9904
RightForeArm  -18.3742 20.4534 5.11085
RightHand  -2.25735 9.89131 -17.478
LeftUpLeg  -77.7473 25.6585 -34.5918
LeftLeg  36.2139 0.26673 0.588579
LeftFoot  -8.82908 -0.134235 8.52964
LeftToes  1.06244e-005 4.65856e-005 -8.18505e-006
248
root  65.4852 36.7323 3.90593 42.1688 7.65996 -0.705991
RightUpLeg  -75.8432 -27.3998 18.869
RightLeg  26.7088 3.03104 1.4312
RightFoot  5.41016 -0.205016 1.77128
RightToes  0.00048216 0.542163 -0.142577
Spine  69.0106 -4.07877 5.94892
Spine1  10.4721 3.09686 -7.35957
HEad  -37.5677 -5.1543 6.24522
LeftShoulder1  2.39141 -24.0771 -0.226597
LeftArm  -79.6012 -54.0349 25.0929
LeftForeArm  -7.43199 -9.77654 4.59073
LeftHand  -0.25398 0.0180481 5.50724
RightShoulder  1.27688 12.1993 -0.31095
RightArm  -72.1233 59.0628 -14.4902
RightForeArm  -19.0852 20.8317 5.26456
RightHand  -2.49056 10.4738 -18.5434
LeftUpLeg  -77.8191 25.952 -34.651
LeftLeg  36.3196 0.142345 0.491039
LeftFoot  -8.94604 -0.12443 8.51493
LeftToes  1.06244e-005 4.65856e-005 -8.18505e-006
249
root  65.4982 36.7373 3.9808 42.205 7.43222 -0.783463
RightUpLeg  -75.6619 -27.1581 18.6212
RightLeg  26.7342 2.98002 1.40479
RightFoot  5.34244 -0.20049 1.69459
RightToes  0.00048216 0.542163 -0.142577
Spine  69.1454 -4.17332 5.71971
Spine1  10.5553 2.92224 -7.74172
HEad  -37.1566 -4.80708 6.45794
LeftShoulder1  2.42783 -24.2027 -0.329661
LeftArm  -78.9871 -53.3184 25.1068
LeftForeArm  -8.0707 -9.73528 4.53415
LeftHand  -0.25398 0.0180481 5.50724
RightShoulder  1.18 11.7391 -0.753096
RightArm  -72.4216 59.5578 -14.5026
RightForeArm  -18.7599 20.9291 5.27502
RightHand  -2.55633 10.6504 -18.8101
LeftUpLeg  -77.9062 26.167 -34.7137
LeftLeg  36.4665 0.144753 0.493878
LeftFoot  -9.10665 -0.109119 8.39356
LeftToes  1.06244e-005 4.65856e-005 -8.18505e-006
250
root  65.5033 36.7285 4.03069 42.3381 7.14081 -0.725536
RightUpLeg  -75.7436 -26.9318 18.3485
RightLeg  26.8788 2.90384 1.3722
RightFoot  5.30132 -0.198549 1.64266
RightToes  0.00048216 0.542163 -0.142577
Spine  69.0619 -4.12373 5.38745
Spine1  10.6635 2.78335 -8.00311
HEad  -36.4348 -4.65554 6.66538
LeftShoulder1  2.44495 -24.1408 -0.422383
LeftArm  -78.8349 -53.2018 25.3569
LeftForeArm  -8.1015 -9.75137 4.42337
LeftHand  -0.25398 0.0180481 5.50724
RightShoulder  1.09247 11.3208 -1.17645
RightArm  -72.5984 59.9634 -14.1877
RightForeArm  -17.8628 20.8931 5.22144
RightHand  -2.50096 10.4454 -18.6458
LeftUpLeg  -77.9733 26.1499 -34.7614
LeftLeg  36.5719 0.340399 0.650669
LeftFoot  -9.22215 -0.0969978 8.23565
LeftToes  1.06244e-005 4.65856e-005 -8.18505e-006
251
root  65.4984 36.7176 4.06049 42.4048 6.969 -0.713323
RightUpLeg  -75.7805 -26.7511 18.1488
RightLeg  27.0141 2.79557 1.32089
RightFoot  5.23913 -0.203302 1.68557
RightToes  0.00048216 0.542163 -0.142577
Spine  68.9139 -3.99831 5.21617
Spine1  10.7709 2.7998 -8.05576
HEad  -35.6867 -4.82845 6.53927
LeftShoulder1  2.49427 -23.9868 -0.68179
LeftArm  -79.1734 -53.6895 25.3776
LeftForeArm  -6.80479 -10.1248 4.25297
LeftHand  -0.25398 0.0180481 5.50724
RightShoulder  1.01592 10.8591 -1.5135
RightArm  -72.3022 60.3885 -13.7741
RightForeArm  -17.6312 20.6777 5.16128
RightHand  -2.48124 10.3444 -18.6177
LeftUpLeg  -78.007 26.1049 -34.6804
LeftLeg  36.6797 0.54575 0.816641
LeftFoot  -9.30597 -0.0890976 8.15945
LeftToes  1.06244e-005 4.65856e-005 -8.18505e-006
252
root  65.4809 36.7142 4.07629 42.2667 6.99824 -0.820496
RightUpLeg  -75.5733 -26.6541 18.0371
RightLeg  27.1241 2.69014 1.26902
RightFoot  5.13697 -0.210743 1.76747
RightToes  0.00048216 0.542163 -0.142577
Spine  68.8613 -3.92309 5.184
Spine1  10.9317 2.86515 -8.01861
HEad  -35.3003 -4.97653 6.18678
LeftShoulder1  2.56651 -24.0984 -0.934659
LeftArm  -79.4359 -53.8283 25.1694
LeftForeArm  -5.2573 -10.6655 4.09949
LeftHand  -0.25398 0.0180481 5.50724
RightShoulder  0.958055 10.6017 -1.83302
RightArm  -71.6109 60.7561 -13.6089
RightForeArm  -18.7044 20.2754 5.12965
RightHand  -2.49746 10.399 -18.6727
LeftUpLeg  -77.9885 26.259 -34.5316
LeftLeg  36.8094 0.546988 0.820349
LeftFoot  -9.39225 -0.0829888 8.19269
LeftToes  1.06244e-005 4.65856e-005 -8.18505e-006
253
root  65.4455 36.7212 4.08098 41.9918 7.17887 -0.952674
RightUpLeg  -75.2309 -26.6429 17.9784
RightLeg  27.2446 2.55427 1.20013
RightFoot  5.03231 -0.211982 1.75677
RightToes  0.00048216 0.542163 -0.142577
Spine  68.9328 -3.90324 5.14797
Spine1  11.0657 2.86351 -7.9884
HEad  -35.2459 -4.91558 6.06068
LeftShoulder1  2.6292 -24.4443 -1.05504
LeftArm  -79.4044 -53.3654 25.1474
LeftForeArm  -4.52285 -11.017 4.00835
LeftHand  -0.25398 0.0180481 5.50724
RightShoulder  0.943867 10.7738 -2.04108
RightArm  -70.7573 60.7726 -13.6652
RightForeArm  -20.3487 19.9618 5.15871
RightHand  -2.48511 10.3442 -18.6458
LeftUpLeg  -77.9445 26.6091 -34.4951
LeftLeg  36.8858 0.279792 0.606601
LeftFoot  -9.41998 -0.0825365 8.29279
LeftToes  1.06244e-005 4.65856e-005 -8.18505e-006
254
root  65.3929 36.7338 4.07812 41.7989 7.43554 -1.034
RightUpLeg  -74.9673 -26.6369 17.9508
RightLeg  27.331 2.33439 1.08151
RightFoot  4.93599 -0.209198 1.69546
RightToes  0.00048216 0.542163 -0.142577
Spine  69.0108 -3.86867 5.11424
Spine1  11.0277 2.84899 -7.98193
HEad  -35.2365 -4.86007 6.24097
LeftShoulder1  2.66094 -24.6136 -1.11693
LeftArm  -79.4676 -53.0735 25.4283
LeftForeArm  -4.01001 -11.1173 3.9853
LeftHand  -0.25398 0.0180481 5.50724
RightShoulder  0.976022 11.0843 -1.95077
RightArm  -69.8282 60.5053 -13.6022
RightForeArm  -21.3349 19.9462 5.23007
RightHand  -2.47633 10.2335 -18.7075
LeftUpLeg  -77.9847 26.9519 -34.6276
LeftLeg  36.8564 -0.146641 0.262581
LeftFoot  -9.31751 -0.0925211 8.40196
LeftToes  1.06244e-005 4.65856e-005 -8.18505e-006
255
root  65.3367 36.7401 4.07046 41.8648 7.69652 -1.02903
RightUpLeg  -74.9502 -26.5665 17.91
RightLeg  27.3642 2.07876 0.939472
RightFoot  4.82398 -0.219866 1.7804
RightToes  0.00048216 0.542163 -0.142577
Spine  68.908 -3.83132 5.10873
Spine1  10.9113 2.86677 -8.02539
HEad  -35.2565 -4.9634 6.32274
LeftShoulder1  2.64668 -24.4885 -1.10818
LeftArm  -79.8573 -53.2391 25.7236
LeftForeArm  -2.86389 -11.134 4.04037
LeftHand  -0.25398 0.0180481 5.50724
RightShoulder  1.02501 11.2067 -1.63401
RightArm  -68.7982 60.3177 -13.4655
RightForeArm  -21.4479 20.0021 5.28334
RightHand  -2.54667 10.3789 -19.0461
LeftUpLeg  -78.1644 27.038 -34.8318
LeftLeg  36.7475 -0.506595 -0.0264302
LeftFoot  -9.12631 -0.108652 8.45094
LeftToes  1.06244e-005 4.65856e-005 -8.18505e-006
